<?xml version="1.0" encoding="utf-8"?>
<!-- Generator: Adobe Illustrator 23.0.1, SVG Export Plug-In . SVG Version: 6.00 Build 0)  -->
<svg version="1.1" id="Layer_1" xmlns="http://www.w3.org/2000/svg" xmlns:xlink="http://www.w3.org/1999/xlink" x="0px" y="0px"
	 viewBox="0 0 230 47" style="enable-background:new 0 0 230 47;" xml:space="preserve">
<style type="text/css">
	.st0{fill:#084B83;}
</style>
<g>
	<path d="M0.9,11.7c1.3-0.3,3.2-0.4,5-0.4c2.8,0,4.6,0.5,5.9,1.6c1,0.9,1.6,2.3,1.6,3.8c0,2.7-1.7,4.4-3.8,5.2V22
		c1.6,0.5,2.5,2,3,4.1c0.7,2.8,1.1,4.8,1.6,5.5h-2.7c-0.3-0.6-0.8-2.3-1.4-4.8c-0.6-2.8-1.7-3.8-4-3.9H3.5v8.8H0.9V11.7z M3.5,20.9
		h2.7c2.8,0,4.6-1.5,4.6-3.8c0-2.6-1.9-3.7-4.6-3.8c-1.3,0-2.2,0.1-2.6,0.2V20.9z"/>
	<path d="M18.5,24.9c0.1,3.6,2.3,5,5,5c1.9,0,3-0.3,4-0.8l0.4,1.9c-0.9,0.4-2.5,0.9-4.8,0.9C18.7,32,16,29,16,24.7s2.6-7.8,6.8-7.8
		c4.7,0,6,4.2,6,6.8c0,0.5-0.1,1-0.1,1.2H18.5z M26.3,23c0-1.7-0.7-4.3-3.7-4.3c-2.7,0-3.8,2.5-4,4.3H26.3z"/>
	<path d="M40.1,31.7l-0.2-1.8h-0.1C39,31,37.5,32,35.4,32c-2.9,0-4.4-2.1-4.4-4.2c0-3.5,3.1-5.4,8.7-5.4v-0.3c0-1.2-0.3-3.4-3.3-3.4
		c-1.4,0-2.8,0.4-3.8,1.1L32,18.1c1.2-0.8,2.9-1.3,4.8-1.3c4.4,0,5.5,3,5.5,5.9v5.4c0,1.3,0.1,2.5,0.2,3.5H40.1z M39.8,24.3
		c-2.9-0.1-6.1,0.4-6.1,3.3c0,1.7,1.1,2.5,2.5,2.5c1.9,0,3.1-1.2,3.5-2.4c0.1-0.3,0.1-0.6,0.1-0.8V24.3z"/>
	<path d="M46.6,10.4h2.6v21.3h-2.6V10.4z"/>
	<path d="M53.6,10.4h2.6v21.3h-2.6V10.4z"/>
	<path d="M61.7,17.2l3.2,8.6c0.3,1,0.7,2.1,0.9,3h0.1c0.3-0.9,0.6-2,0.9-3l2.9-8.5h2.8l-4,10.3c-1.9,5-3.2,7.5-5,9.1
		c-1.3,1.1-2.6,1.6-3.2,1.7l-0.7-2.2c0.7-0.2,1.5-0.6,2.3-1.3c0.7-0.6,1.6-1.6,2.2-2.9c0.1-0.3,0.2-0.5,0.2-0.6
		c0-0.1-0.1-0.4-0.2-0.7l-5.4-13.4H61.7z"/>
	<path d="M91.6,31.1c-0.7,0.4-2.2,0.8-4.2,0.8c-4.4,0-7.2-3-7.2-7.4c0-4.5,3.1-7.7,7.8-7.7c1.6,0,2.9,0.4,3.7,0.8l-0.6,2
		C90.4,19.3,89.4,19,88,19c-3.3,0-5.1,2.5-5.1,5.5c0,3.4,2.2,5.4,5,5.4c1.5,0,2.5-0.4,3.2-0.7L91.6,31.1z"/>
	<path d="M107.6,24.3c0,5.4-3.7,7.7-7.2,7.7c-3.9,0-7-2.9-7-7.5c0-4.9,3.2-7.7,7.2-7.7C104.8,16.8,107.6,19.9,107.6,24.3z
		 M96.1,24.4c0,3.2,1.8,5.6,4.4,5.6c2.5,0,4.4-2.4,4.4-5.6c0-2.5-1.2-5.6-4.3-5.6C97.4,18.8,96.1,21.7,96.1,24.4z"/>
	<path d="M124.1,24.3c0,5.4-3.7,7.7-7.2,7.7c-3.9,0-7-2.9-7-7.5c0-4.9,3.2-7.7,7.2-7.7C121.3,16.8,124.1,19.9,124.1,24.3z
		 M112.6,24.4c0,3.2,1.8,5.6,4.4,5.6c2.5,0,4.4-2.4,4.4-5.6c0-2.5-1.2-5.6-4.3-5.6S112.6,21.7,112.6,24.4z"/>
	<path d="M127.4,10.4h2.6v21.3h-2.6V10.4z"/>
	<path class="st0" d="M140.9,31.7V11.5h2.8l6.5,10.2c1.5,2.4,2.7,4.5,3.6,6.6l0.1,0c-0.2-2.7-0.3-5.2-0.3-8.3v-8.5h2.5v20.2h-2.6
		l-6.4-10.3c-1.4-2.2-2.8-4.6-3.8-6.7l-0.1,0c0.1,2.6,0.2,5,0.2,8.3v8.6H140.9z"/>
	<path class="st0" d="M168.6,31.7l-0.2-1.8h-0.1c-0.8,1.1-2.4,2.2-4.4,2.2c-2.9,0-4.4-2.1-4.4-4.2c0-3.5,3.1-5.4,8.7-5.4v-0.3
		c0-1.2-0.3-3.4-3.3-3.4c-1.3,0-2.8,0.4-3.8,1.1l-0.6-1.7c1.2-0.8,2.9-1.3,4.8-1.3c4.4,0,5.5,3,5.5,5.9v5.4c0,1.3,0.1,2.5,0.2,3.5
		H168.6z M168.2,24.3c-2.9-0.1-6.2,0.4-6.2,3.3c0,1.7,1.1,2.5,2.5,2.5c1.9,0,3.1-1.2,3.5-2.4c0.1-0.3,0.2-0.6,0.2-0.8V24.3z"/>
	<path class="st0" d="M175.8,17.2l2.8,8.2c0.5,1.3,0.9,2.5,1.2,3.7h0.1c0.3-1.2,0.8-2.4,1.2-3.7l2.8-8.2h2.8l-5.7,14.5h-2.5
		L173,17.2H175.8z"/>
	<path class="st0" d="M189.1,31.7c0.1-1,0.1-2.5,0.1-3.8V10.4h2.6v9.1h0.1c0.9-1.6,2.6-2.7,5-2.7c3.6,0,6.1,3,6.1,7.4
		c0,5.2-3.3,7.8-6.5,7.8c-2.1,0-3.8-0.8-4.9-2.7h-0.1l-0.1,2.4H189.1z M191.9,25.9c0,0.3,0.1,0.7,0.1,1c0.5,1.8,2,3.1,4,3.1
		c2.8,0,4.4-2.2,4.4-5.6c0-2.9-1.5-5.4-4.3-5.4c-1.8,0-3.5,1.2-4,3.2c-0.1,0.3-0.2,0.7-0.2,1.1V25.9z"/>
	<path class="st0" d="M214.4,31.7l-0.2-1.8h-0.1c-0.8,1.1-2.4,2.2-4.4,2.2c-2.9,0-4.4-2.1-4.4-4.2c0-3.5,3.1-5.4,8.7-5.4v-0.3
		c0-1.2-0.3-3.4-3.3-3.4c-1.3,0-2.8,0.4-3.8,1.1l-0.6-1.7c1.2-0.8,2.9-1.3,4.8-1.3c4.4,0,5.5,3,5.5,5.9v5.4c0,1.3,0.1,2.5,0.2,3.5
		H214.4z M214,24.3c-2.9-0.1-6.2,0.4-6.2,3.3c0,1.7,1.1,2.5,2.5,2.5c1.9,0,3.1-1.2,3.5-2.4c0.1-0.3,0.2-0.6,0.2-0.8V24.3z"/>
	<path class="st0" d="M220.8,21.7c0-1.7,0-3.2-0.1-4.5h2.3l0.1,2.9h0.1c0.7-2,2.2-3.2,4-3.2c0.3,0,0.5,0,0.8,0.1v2.5
		c-0.3-0.1-0.5-0.1-0.9-0.1c-1.9,0-3.2,1.4-3.5,3.4c-0.1,0.4-0.1,0.8-0.1,1.2v7.7h-2.6V21.7z"/>
</g>
</svg>
